# Blender v2.92.0 OBJ File: 'wood_wall.blend'
# www.blender.org
mtllib hole_4.mtl
o Cube_Cube.020
v 2.000000 -0.000000 0.378780
v 1.078848 0.000000 -0.039209
v 0.277560 -0.000000 0.383048
v -0.769394 0.000000 -0.309248
v -1.259576 -0.000000 0.050872
v -1.650527 -0.000000 0.587234
v -2.000000 -0.000000 0.473897
v -2.000000 -0.000000 2.000000
v 2.000000 -0.000000 2.000000
v -1.650527 -8.000000 0.587233
v -2.000000 -8.000000 0.473896
v -0.769394 -8.000000 -0.309249
v -1.259576 -8.000000 0.050871
v 1.078848 -8.000000 -0.039210
v 0.277560 -8.000000 0.383047
v 2.000000 -8.000000 0.378779
v 2.000000 -0.000000 1.920009
v -2.000000 -0.000000 2.015126
v -2.000000 -8.000000 2.015124
v 2.000000 -8.000000 1.920007
vt 0.000000 0.594695
vt 0.230288 0.490198
vt 0.430610 0.595762
vt 0.692348 0.422688
vt 0.814894 0.512718
vt 0.912632 0.646809
vt 1.000000 0.618474
vt 1.000000 1.000000
vt 0.000000 1.000000
vt 0.912632 0.646809
vt 1.000000 0.618474
vt 0.692348 0.422688
vt 0.814894 0.512718
vt 0.230288 0.490198
vt 0.430610 0.595762
vt 0.000000 0.594695
vt 0.000000 0.594695
vt 0.000000 0.594695
vt 1.000000 0.618474
vt 1.000000 0.618474
vn 0.2555 0.7860 -0.5630
vn -0.0231 0.6202 -0.7841
vn 0.0394 0.6084 -0.7926
vn -0.0198 0.5982 -0.8011
vn -0.5232 0.6742 -0.5212
vn -0.2478 0.5958 -0.7639
vn 0.2408 0.6249 -0.7427
vn 0.0000 1.0000 0.0000
vn -0.3085 0.0000 -0.9512
vn 0.3085 0.0000 -0.9512
vn -0.0247 0.0000 -0.9997
vn -0.7084 0.0000 -0.7058
vn -0.0295 0.0000 -0.9996
vn 0.0496 0.0000 -0.9988
vn 0.4132 0.0000 -0.9106
vn 1.0000 0.0000 0.0000
vn -1.0000 0.0000 0.0000
usemtl Material.016
s 1
f 1/1/1 2/2/2 3/3/3 4/4/4 5/5/5 6/6/6 7/7/7 8/8/8 9/9/8
usemtl Material.017
f 7/7/7 6/6/6 10/10/9 11/11/10
f 5/5/5 4/4/4 12/12/11 13/13/12
f 3/3/3 2/2/2 14/14/13 15/15/14
f 6/6/6 5/5/5 13/13/12 10/10/9
f 4/4/4 3/3/3 15/15/14 12/12/11
f 2/2/2 1/1/1 16/16/15 14/14/13
f 16/16/16 1/1/16 17/17/16 20/18/16
f 7/7/17 11/11/17 19/19/17 18/20/17
