# Blender v2.92.0 OBJ File: 'wood_wall.blend'
# www.blender.org
mtllib hole_0.mtl
o Cube_Cube.016
v 2.000000 0.000000 -2.000000
v -2.000000 0.000000 -2.000000
v -2.000000 0.000000 -0.557139
v -0.704059 0.000000 -0.475770
v -0.613345 -0.000000 0.531128
v 0.073343 -0.000000 0.595294
v 0.144967 -0.000000 1.282227
v -0.539458 -0.000000 1.520843
v -0.268188 -0.000000 2.000000
v 2.000000 -0.000000 2.000000
v -0.613345 -8.000000 0.531127
v 0.073343 -8.000000 0.595293
v -2.000000 -8.000000 -0.557140
v -0.704059 -8.000000 -0.475771
v -0.539458 -8.000000 1.520842
v -0.268188 -8.000000 1.999999
v 0.144967 -8.000000 1.282226
v -2.000000 0.000000 -1.993095
v -2.000000 -8.000000 -1.993096
v 2.002485 0.021514 1.980670
v 2.002485 -7.978487 1.980669
vt 0.000000 0.000000
vt 1.000000 0.000000
vt 1.000000 0.360715
vt 0.676015 0.381058
vt 0.653336 0.632782
vt 0.481664 0.648824
vt 0.463758 0.820557
vt 0.634865 0.880211
vt 0.567047 1.000000
vt 0.000000 1.000000
vt 0.653336 0.632782
vt 0.481664 0.648824
vt 1.000000 0.360715
vt 0.676015 0.381058
vt 0.634865 0.880211
vt 0.567047 1.000000
vt 0.463758 0.820557
vt 1.000000 0.360715
vt 1.000000 0.360715
vt 0.567047 1.000000
vt 0.567047 1.000000
vn 0.0000 1.0000 0.0000
vn -0.0434 0.7208 0.6918
vn -0.5652 0.5858 0.5808
vn -0.5731 0.5876 0.5712
vn -0.5687 0.5884 0.5748
vn -0.6813 0.5905 -0.4326
vn -0.7699 0.5685 -0.2899
vn -0.5235 0.7988 0.2964
vn -0.7083 -0.0000 0.7059
vn -0.7033 -0.0000 0.7109
vn -0.0627 -0.0000 0.9980
vn -0.6974 -0.0000 0.7166
vn -0.9359 0.0000 -0.3524
vn -0.8702 -0.0000 0.4927
vn -0.8442 0.0000 -0.5360
vn -1.0000 0.0000 0.0000
vn 0.0085 -0.0000 1.0000
usemtl Material.008
s 1
f 1/1/1 2/2/1 3/3/2 4/4/3 5/5/4 6/6/5 7/7/6 8/8/7 9/9/8 10/10/1
usemtl Material.009
f 6/6/5 5/5/4 11/11/9 12/12/10
f 4/4/3 3/3/2 13/13/11 14/14/12
f 9/9/8 8/8/7 15/15/13 16/16/14
f 7/7/6 6/6/5 12/12/10 17/17/15
f 5/5/4 4/4/3 14/14/12 11/11/9
f 8/8/7 7/7/6 17/17/15 15/15/13
f 13/13/16 3/3/16 18/18/16 19/19/16
f 9/9/17 16/16/17 21/20/17 20/21/17
