# Blender v2.92.0 OBJ File: 'wood_wall.blend'
# www.blender.org
mtllib hole_5.mtl
o Cube_Cube.003
v 2.000000 0.000000 -2.000000
v -2.000000 0.000000 -2.000000
v -2.000000 -0.000000 2.000000
v -1.074321 -0.000000 2.000000
v 2.000000 0.000000 -0.556648
v 0.769227 0.000000 -0.890964
v 0.217555 -0.000000 0.004056
v -0.663636 -0.000000 0.007147
v -1.235370 -0.000000 0.803575
v -0.602757 -0.000000 1.425811
v -1.074321 -8.000000 2.000000
v 2.000000 -8.000000 -0.556648
v 0.769227 -8.000000 -0.890964
v 0.217555 -8.000000 0.004056
v -0.663636 -8.000000 0.007147
v -1.235370 -8.000000 0.803575
v -0.602757 -8.000000 1.425811
vt 0.000000 0.000000
vt 1.000000 0.000000
vt 1.000000 1.000000
vt 0.768580 1.000000
vt 0.650689 0.856453
vt 0.808843 0.700894
vt 0.665909 0.501787
vt 0.445611 0.501014
vt 0.307693 0.277259
vt 0.000000 0.360838
vt 0.445611 0.501014
vt 0.307693 0.277259
vt 0.650689 0.856453
vt 0.808843 0.700894
vt 0.665909 0.501787
vt 0.000000 0.360838
vt 0.768580 1.000000
vn 0.0000 1.0000 0.0000
vn 0.4413 0.8209 0.3624
vn 0.8119 0.5822 -0.0431
vn 0.8074 0.5859 -0.0692
vn 0.3603 0.6176 0.6991
vn 0.3866 0.6123 0.6896
vn 0.2959 0.5940 0.7481
vn -0.2016 0.6392 0.7422
vn 0.4890 0.0000 0.8723
vn 0.3678 0.0000 0.9299
vn 0.9986 -0.0000 -0.0530
vn 0.9963 0.0000 -0.0854
vn 0.4581 0.0000 0.8889
vn -0.2621 0.0000 0.9650
vn 0.7728 -0.0000 0.6347
usemtl Material.003
s 1
f 1/1/1 2/2/1 3/3/1 4/4/2 10/5/3 9/6/4 8/7/5 7/8/6 6/9/7 5/10/8
usemtl Material.004
f 6/9/7 7/8/6 14/11/9 13/12/10
f 9/6/4 10/5/3 17/13/11 16/14/12
f 7/8/6 8/7/5 15/15/13 14/11/9
f 5/10/8 6/9/7 13/12/10 12/16/14
f 10/5/3 4/4/2 11/17/15 17/13/11
f 8/7/5 9/6/4 16/14/12 15/15/13
