# Blender v2.92.0 OBJ File: 'wood_wall.blend'
# www.blender.org
mtllib hole_1.mtl
o Cube_Cube.017
v 2.000000 0.000000 -2.000000
v -0.227682 0.000000 -2.000000
v -0.048237 0.000000 -1.053729
v -0.627403 0.000000 -0.425282
v -0.195631 -0.000000 0.059517
v 0.044016 -0.000000 0.955096
v -0.496279 -0.000000 1.604356
v -0.240435 -0.000000 2.000000
v 2.000000 -0.000000 2.000000
v -0.048237 -8.000000 -1.053730
v -0.627403 -8.000000 -0.425283
v 0.044016 -8.000000 0.955095
v -0.496279 -8.000000 1.604355
v -0.195631 -8.000000 0.059516
v -0.227682 -8.000000 -2.000001
v -0.240435 -8.000000 1.999999
v 1.964486 0.000000 -2.000000
v 1.951733 -0.000000 2.000000
v 1.964486 -8.000000 -2.000001
v 1.951733 -8.000000 1.999999
vt 0.000000 0.000000
vt 0.556920 0.000000
vt 0.512059 0.236568
vt 0.656851 0.393679
vt 0.548908 0.514879
vt 0.488996 0.738774
vt 0.624070 0.901089
vt 0.560109 1.000000
vt 0.000000 1.000000
vt 0.512059 0.236568
vt 0.656851 0.393679
vt 0.488996 0.738774
vt 0.624070 0.901089
vt 0.548908 0.514879
vt 0.556920 0.000000
vt 0.560109 1.000000
vt 0.560109 1.000000
vt 0.560109 1.000000
vt 0.556920 0.000000
vt 0.556920 0.000000
vn -0.0000 1.0000 0.0000
vn -0.7373 0.6609 0.1398
vn -0.7554 0.6186 -0.2161
vn -0.8126 0.5827 -0.0069
vn -0.6623 0.6586 0.3571
vn -0.7688 0.6168 -0.1689
vn -0.8023 0.5950 -0.0482
vn -0.4962 0.8068 0.3208
vn -0.9614 0.0000 -0.2750
vn -1.0000 0.0000 -0.0085
vn -0.9767 0.0000 -0.2146
vn -0.9982 0.0000 -0.0600
vn -0.8802 -0.0000 0.4746
vn -0.9825 -0.0000 0.1863
vn -0.8397 -0.0000 0.5430
vn 0.0000 -0.0000 1.0000
vn 0.0000 0.0000 -1.0000
usemtl Material.010
s 1
f 1/1/1 2/2/2 3/3/3 4/4/4 5/5/5 6/6/6 7/7/7 8/8/8 9/9/1
usemtl Material.011
f 4/4/4 3/3/3 10/10/9 11/11/10
f 7/7/7 6/6/6 12/12/11 13/13/12
f 5/5/5 4/4/4 11/11/10 14/14/13
f 3/3/3 2/2/2 15/15/14 10/10/9
f 8/8/8 7/7/7 13/13/12 16/16/15
f 6/6/6 5/5/5 14/14/13 12/12/11
f 8/8/16 16/16/16 20/17/16 18/18/16
f 15/15/17 2/2/17 17/19/17 19/20/17
