# Blender v2.92.0 OBJ File: 'wood_wall.blend'
# www.blender.org
mtllib hole_7.mtl
o Cube_Cube.004
v -2.000000 0.000000 -2.000000
v -2.000000 -0.000000 2.000000
v 2.000000 -0.000000 2.000000
v 2.000000 -0.000000 0.428738
v -1.124582 0.000000 -2.000000
v 1.624362 -0.000000 0.545966
v -0.703631 0.000000 -1.499341
v -0.883528 0.000000 -0.598632
v -0.132639 0.000000 -0.035063
v -0.054203 -0.000000 0.708332
v 0.615220 -0.000000 0.352078
v 1.347382 -0.000000 0.883852
v 2.000000 -8.000000 0.428738
v -1.124582 -8.000000 -2.000000
v 1.624362 -8.000000 0.545966
v -0.703631 -8.000000 -1.499341
v -0.883528 -8.000000 -0.598632
v -0.132639 -8.000000 -0.035063
v -0.054203 -8.000000 0.708332
v 0.615220 -8.000000 0.352078
v 1.347382 -8.000000 0.883852
vt 0.000000 0.607184
vt 0.093909 0.636491
vt 0.163154 0.720963
vt 0.346195 0.588020
vt 0.513551 0.677083
vt 0.533160 0.491234
vt 0.720882 0.350342
vt 0.675908 0.125165
vt 0.781145 0.000000
vt 1.000000 0.000000
vt 1.000000 1.000000
vt 0.000000 1.000000
vt 0.163154 0.720963
vt 0.346195 0.588020
vt 0.513551 0.677083
vt 0.533160 0.491234
vt 0.720882 0.350342
vt 0.675908 0.125165
vt 0.000000 0.607184
vt 0.093909 0.636491
vt 0.781145 0.000000
vn -0.2318 0.6282 -0.7427
vn -0.4259 0.6479 -0.6315
vn -0.1039 0.5805 -0.8076
vn 0.0553 0.6050 -0.7943
vn 0.3887 0.5598 -0.7318
vn 0.6774 0.6273 -0.3843
vn 0.7441 0.6045 -0.2843
vn 0.7590 0.6214 -0.1946
vn 0.4355 0.8223 -0.3662
vn -0.0000 1.0000 0.0000
vn -0.1276 0.0000 -0.9918
vn 0.0695 0.0000 -0.9976
vn 0.4691 0.0000 -0.8831
vn 0.8698 0.0000 -0.4934
vn 0.9342 0.0000 -0.3569
vn 0.9687 0.0000 -0.2484
vn -0.2979 0.0000 -0.9546
vn -0.5591 0.0000 -0.8291
vn 0.7654 0.0000 -0.6435
usemtl Material.003
s 1
f 4/1/1 6/2/2 12/3/3 11/4/4 10/5/5 9/6/6 8/7/7 7/8/8 5/9/9 1/10/10 2/11/10 3/12/10
usemtl Material.004
f 11/4/4 12/3/3 21/13/11 20/14/12
f 9/6/6 10/5/5 19/15/13 18/16/14
f 7/8/8 8/7/7 17/17/15 16/18/16
f 6/2/2 4/1/1 13/19/17 15/20/18
f 12/3/3 6/2/2 15/20/18 21/13/11
f 10/5/5 11/4/4 20/14/12 19/15/13
f 8/7/7 9/6/6 18/16/14 17/17/15
f 5/9/9 7/8/8 16/18/16 14/21/19
