# Blender v2.92.0 OBJ File: 'wood_wall.blend'
# www.blender.org
mtllib hole_3.mtl
o Cube_Cube.006
v 2.000000 0.000000 -2.000000
v -2.000000 0.000000 -2.000000
v 2.000000 0.000000 -0.571261
v -2.000000 0.000000 -0.565038
v 0.953397 0.000000 -0.153187
v 0.054364 0.000000 -0.809486
v -0.315110 0.000000 -0.437691
v -0.786730 0.000000 -0.048779
v -1.231943 0.000000 -0.656590
v -1.722772 0.000000 -0.436009
v 2.000000 -8.000000 -0.571261
v -2.000000 -8.000000 -0.565038
v 0.953397 -8.000000 -0.153187
v 0.054364 -8.000000 -0.809486
v -0.315110 -8.000000 -0.437691
v -0.786730 -8.000000 -0.048779
v -1.231943 -8.000000 -0.656590
v -1.722772 -8.000000 -0.436009
vt 0.000000 0.000000
vt 1.000000 0.000000
vt 1.000000 0.358741
vt 0.930693 0.390998
vt 0.807986 0.335853
vt 0.696683 0.487805
vt 0.578777 0.390577
vt 0.486409 0.297629
vt 0.261651 0.461703
vt 0.000000 0.357185
vt 0.930693 0.390998
vt 0.807986 0.335853
vt 0.696683 0.487805
vt 0.578777 0.390577
vt 0.486409 0.297629
vt 0.261651 0.461703
vt 1.000000 0.358741
vt 0.000000 0.357185
vn 0.0000 1.0000 0.0000
vn -0.2601 0.7874 0.5589
vn -0.0052 0.6244 0.7811
vn -0.2063 0.5892 0.7812
vn -0.1017 0.5744 0.8122
vn 0.4836 0.6961 0.5306
vn 0.0639 0.5857 0.8080
vn -0.0987 0.6127 0.7841
vn 0.2326 0.7789 0.5824
vn -0.0066 0.0000 1.0000
vn -0.2553 0.0000 0.9669
vn -0.1242 0.0000 0.9923
vn 0.6736 0.0000 0.7391
vn 0.0789 0.0000 0.9969
vn -0.1249 0.0000 0.9922
vn -0.4220 0.0000 0.9066
vn 0.3710 0.0000 0.9287
usemtl Material.003
s 1
f 1/1/1 2/2/1 4/3/2 10/4/3 9/5/4 8/6/5 7/7/6 6/8/7 5/9/8 3/10/9
usemtl Material.004
f 9/5/4 10/4/3 18/11/10 17/12/11
f 7/7/6 8/6/5 16/13/12 15/14/13
f 5/9/8 6/8/7 14/15/14 13/16/15
f 10/4/3 4/3/2 12/17/16 18/11/10
f 8/6/5 9/5/4 17/12/11 16/13/12
f 6/8/7 7/7/6 15/14/13 14/15/14
f 3/10/9 5/9/8 13/16/15 11/18/17
