# Blender v2.92.0 OBJ File: 'wood_wall.blend'
# www.blender.org
mtllib door.mtl
o Cube.001_Cube.001
v 0.000000 0.000000 -1.500000
v 0.000000 1.000000 -1.500000
v 0.000000 1.000000 -2.000000
v 0.000000 0.000000 -2.000000
v 1.000000 1.000000 -2.000000
v 1.000000 0.000000 -2.000000
v 0.000000 0.000000 -1.500000
v 0.000000 1.000000 -1.500000
v 1.000000 1.000000 -1.500000
v 1.000000 0.000000 -1.500000
v 1.000000 -0.000000 2.000000
v 1.000000 1.000000 2.000000
v 0.000000 1.000000 2.000000
v 0.000000 -0.000000 2.000000
v 0.000000 -0.000000 1.500000
v 1.000000 -0.000000 1.500000
v 1.000000 1.000000 1.500000
v 0.000000 1.000000 1.500000
v 1.000000 6.300000 1.500002
v 1.000000 6.300000 2.000002
v 1.000000 9.000000 2.000002
v 1.000000 9.000000 1.500002
v 1.000000 6.300002 -1.499998
v 1.000000 6.300000 -0.999998
v 1.000000 9.000000 -0.999997
v 1.000000 9.000000 -1.499998
v 0.000000 -0.000000 1.500000
v 0.000000 1.000000 1.500000
v 1.000000 1.000000 1.500000
v 1.000000 -0.000000 1.500000
v 1.000000 -0.000000 1.500000
v 1.000000 -0.000000 2.000000
v 1.000000 5.146999 1.500002
v 1.000000 6.895793 0.000002
v 1.000000 6.300000 1.000002
v 1.000000 9.000000 1.000002
v 1.000000 9.000000 0.000002
v 1.000000 6.895792 0.000002
v 1.000000 9.000000 0.000002
v 1.000000 1.000000 -1.500000
v 1.000000 0.000000 -1.500000
v 1.000000 0.000000 -2.000000
v 1.000000 0.000000 -1.500000
v 1.000000 5.148298 -1.499998
v 1.000000 6.300002 -1.999998
v 1.000000 9.000000 -1.999998
v 1.000000 6.264582 -0.999998
vt 0.888889 0.055556
vt 0.777778 0.055556
vt 0.777778 0.000000
vt 0.888889 0.000000
vt 0.555556 0.555556
vt 0.555556 0.666667
vt 0.444445 0.666667
vt 0.444445 0.555556
vt 0.555556 0.555556
vt 0.444445 0.555556
vt 0.444445 0.666667
vt 0.555556 0.666667
vt 0.555556 0.444444
vt 0.555556 0.555556
vt 0.444445 0.555556
vt 0.444445 0.444444
vt 0.555556 0.388889
vt 0.666667 0.388889
vt 0.666667 0.444444
vt 0.555556 0.444444
vt 0.444445 0.388889
vt 0.555556 0.388889
vt 0.555556 0.444444
vt 0.444445 0.444444
vt 0.055556 0.700000
vt 0.000000 0.700000
vt 0.000000 1.000000
vt 0.055556 1.000000
vt 0.388889 0.700000
vt 0.333333 0.700000
vt 0.333333 1.000000
vt 0.388889 1.000000
vt 0.555556 0.555556
vt 0.555556 0.666667
vt 0.444445 0.666667
vt 0.444445 0.555556
vt 0.055556 0.000000
vt 0.000000 0.000000
vt 0.055556 0.571889
vt 0.222222 0.766199
vt 0.111111 0.700000
vt 0.111111 1.000000
vt 0.222222 1.000000
vt 0.222222 0.766199
vt 0.222222 1.000000
vt 0.444445 0.000000
vt 0.555556 0.000000
vt 0.555556 0.055556
vt 0.444445 0.055556
vt 0.555556 0.000000
vt 0.666667 0.000000
vt 0.666667 0.055556
vt 0.555556 0.055556
vt 0.777778 0.444444
vt 0.666667 0.444444
vt 0.666667 0.388889
vt 0.777778 0.388889
vt 0.888889 0.444444
vt 0.777778 0.444444
vt 0.777778 0.388889
vt 0.888889 0.388889
vt 0.444445 0.000000
vt 0.388889 0.000000
vt 0.388889 0.572033
vt 0.444444 0.700000
vt 0.444444 1.000000
vt 0.333333 0.696065
vn -1.0000 0.0000 0.0000
vn 0.0000 0.0000 -1.0000
vn 0.0000 -0.0000 1.0000
vn 0.0000 -1.0000 -0.0000
vn 0.0000 1.0000 0.0000
vn 1.0000 0.0000 0.0000
usemtl Material.005
s 1
f 1/1/1 2/2/1 3/3/1 4/4/1
f 4/5/2 3/6/2 5/7/2 6/8/2
f 7/9/3 10/10/3 9/11/3 8/12/3
f 11/13/3 12/14/3 13/15/3 14/16/3
f 15/17/4 16/18/4 11/19/4 14/20/4
f 17/21/5 18/22/5 13/23/5 12/24/5
f 19/25/1 20/26/1 21/27/1 22/28/1
f 23/29/1 24/30/1 25/31/1 26/32/1
f 27/33/2 28/34/2 29/35/2 30/36/2
f 31/37/1 32/38/1 20/26/1 19/25/1 33/39/1
f 34/40/1 35/41/1 36/42/1 37/43/1
f 38/44/1 39/45/1 25/31/1 24/30/1
f 5/46/5 3/47/5 2/48/5 40/49/5
f 4/50/4 6/51/4 41/52/4 1/53/4
f 6/54/6 5/55/6 40/56/6 41/57/6
f 14/58/1 13/59/1 18/60/1 15/61/1
f 35/41/1 19/25/1 22/28/1 36/42/1
f 42/62/1 43/63/1 44/64/1 23/29/1 45/65/1
f 45/65/1 23/29/1 26/32/1 46/66/1
f 44/64/1 47/67/1 24/30/1 23/29/1
f 35/41/1 33/39/1 19/25/1
