# Blender v2.92.0 OBJ File: 'wood_wall.blend'
# www.blender.org
mtllib wooden_wall_full.mtl
o Cube.001_Cube.011
v 0.000000 0.000000 -2.000000
v 0.000000 1.000000 -2.000000
v 1.000000 0.000000 -2.000000
v 1.000000 1.000000 -2.000000
v 1.000000 0.000000 -2.000000
v 1.000000 9.000000 -2.000000
v 0.000000 0.000000 0.000000
v 0.000000 1.000000 0.000000
v 1.000000 0.000000 0.000000
v 1.000000 1.000000 0.000000
v 1.000000 0.000000 0.000000
v 1.000000 9.000000 0.000000
v 0.000000 0.000000 0.000000
v 0.000000 1.000000 0.000000
v 1.000000 0.000000 0.000000
v 1.000000 1.000000 0.000000
vt 0.888889 0.222222
vt 0.777778 0.222222
vt 0.777778 0.000000
vt 0.888889 0.000000
vt 0.555556 0.555556
vt 0.555556 0.666667
vt 0.444445 0.666667
vt 0.444445 0.555556
vt 0.444445 0.000000
vt 0.555556 0.000000
vt 0.555556 0.222222
vt 0.444445 0.222222
vt 0.555556 0.000000
vt 0.666667 0.000000
vt 0.666667 0.222222
vt 0.555556 0.222222
vt 0.777778 0.444444
vt 0.666667 0.444444
vt 0.666667 0.222222
vt 0.777778 0.222222
vt 0.444445 0.000000
vt 0.222222 0.000000
vt 0.222222 1.000000
vt 0.444444 1.000000
vt 0.555556 0.555556
vt 0.555556 0.666667
vt 0.444445 0.666667
vt 0.444445 0.555556
vn -1.0000 0.0000 0.0000
vn 0.0000 0.0000 -1.0000
vn 0.0000 1.0000 0.0000
vn 0.0000 -1.0000 0.0000
vn 1.0000 0.0000 0.0000
usemtl Material
s off
f 7/1/1 8/2/1 2/3/1 1/4/1
f 1/5/2 2/6/2 4/7/2 3/8/2
f 4/9/3 2/10/3 8/11/3 10/12/3
f 1/13/4 3/14/4 9/15/4 7/16/4
f 3/17/5 4/18/5 10/19/5 9/20/5
f 5/21/1 11/22/1 12/23/1 6/24/1
f 13/25/2 14/26/2 16/27/2 15/28/2
o Cube.002_Cube.012
v 0.000000 0.000000 2.000000
v 0.000000 1.000000 2.000000
v 1.000000 0.000000 2.000000
v 1.000000 1.000000 2.000000
v 1.000000 0.000000 2.000000
v 1.000000 9.000000 2.000000
v 0.000000 0.000000 0.000000
v 0.000000 1.000000 0.000000
v 1.000000 0.000000 0.000000
v 1.000000 1.000000 0.000000
v 1.000000 0.000000 0.000000
v 1.000000 9.000000 0.000000
v 0.000000 0.000000 0.000000
v 0.000000 1.000000 0.000000
v 1.000000 0.000000 0.000000
v 1.000000 1.000000 0.000000
vt 0.555556 0.444444
vt 0.555556 0.555556
vt 0.444445 0.555556
vt 0.444445 0.444444
vt 0.555556 0.222222
vt 0.666667 0.222222
vt 0.666667 0.444444
vt 0.555556 0.444444
vt 0.444445 0.222222
vt 0.555556 0.222222
vt 0.555556 0.444444
vt 0.444445 0.444444
vt 0.222222 0.000000
vt 0.000000 0.000000
vt 0.000000 1.000000
vt 0.222222 1.000000
vt 0.888889 0.444444
vt 0.777778 0.444444
vt 0.777778 0.222222
vt 0.888889 0.222222
vt 0.555556 0.444444
vt 0.555556 0.555556
vt 0.444445 0.555556
vt 0.444445 0.444444
vn 0.0000 0.0000 1.0000
vn 0.0000 -1.0000 0.0000
vn 0.0000 1.0000 0.0000
vn -1.0000 0.0000 0.0000
usemtl Material
s off
f 19/29/6 20/30/6 18/31/6 17/32/6
f 23/33/7 25/34/7 19/35/7 17/36/7
f 26/37/8 24/38/8 18/39/8 20/40/8
f 27/41/9 21/42/9 22/43/9 28/44/9
f 17/45/9 18/46/9 24/47/9 23/48/9
f 31/49/6 32/50/6 30/51/6 29/52/6
