# Blender v2.92.0 OBJ File: 'brick_pillar.blend'
# www.blender.org
mtllib brick_pillar.mtl
o Cylinder
v -0.707107 0.000000 -0.707107
v -0.707107 9.000000 -0.707107
v -0.555570 0.000000 -0.831470
v -0.555570 9.000000 -0.831470
v -0.382683 0.000000 -0.923880
v -0.382683 9.000000 -0.923880
v -0.195090 0.000000 -0.980785
v -0.195090 9.000000 -0.980785
v 0.000000 0.000000 -1.000000
v 0.000000 9.000000 -1.000000
v 0.195091 0.000000 -0.980785
v 0.195091 9.000000 -0.980785
v 0.382684 0.000000 -0.923880
v 0.382684 9.000000 -0.923880
v 0.555570 0.000000 -0.831470
v 0.555570 9.000000 -0.831470
v 0.707107 0.000000 -0.707107
v 0.707107 9.000000 -0.707107
v 0.831470 0.000000 -0.555570
v 0.831470 9.000000 -0.555570
v 0.923880 0.000000 -0.382684
v 0.923880 9.000000 -0.382684
v 0.980785 0.000000 -0.195090
v 0.980785 9.000000 -0.195090
v 1.000000 0.000000 0.000000
v 1.000000 9.000000 0.000000
v 0.980785 0.000000 0.195090
v 0.980785 9.000000 0.195090
v 0.923880 0.000000 0.382684
v 0.923880 9.000000 0.382684
v 0.831470 0.000000 0.555570
v 0.831470 9.000000 0.555570
v 0.707107 0.000000 0.707107
v 0.707107 9.000000 0.707107
v 0.555570 0.000000 0.831470
v 0.555570 9.000000 0.831470
v 0.382683 0.000000 0.923880
v 0.382683 9.000000 0.923880
v 0.195090 0.000000 0.980785
v 0.195090 9.000000 0.980785
v -0.000000 0.000000 1.000000
v -0.000000 9.000000 1.000000
v -0.195091 0.000000 0.980785
v -0.195091 9.000000 0.980785
v -0.382684 0.000000 0.923879
v -0.382684 9.000000 0.923879
v -0.555571 0.000000 0.831469
v -0.555571 9.000000 0.831469
v -0.707107 0.000000 0.707106
v -0.707107 9.000000 0.707106
v -0.831470 0.000000 0.555569
v -0.831470 9.000000 0.555569
v -0.923880 0.000000 0.382682
v -0.923880 9.000000 0.382682
v -0.980785 0.000000 0.195089
v -0.980785 9.000000 0.195089
v -1.000000 0.000000 -0.000001
v -1.000000 9.000000 -0.000001
v -0.980785 0.000000 -0.195092
v -0.980785 9.000000 -0.195092
v -0.923879 0.000000 -0.382685
v -0.923879 9.000000 -0.382685
v -0.831469 0.000000 -0.555572
v -0.831469 9.000000 -0.555572
v 0.000000 1.000000 -1.590990
v 0.000000 -0.036567 -1.590990
v 1.590990 1.000000 -0.000000
v 1.590990 -0.036567 -0.000000
v -1.590990 1.000000 -0.000000
v -1.590990 -0.036567 -0.000000
v 0.000000 1.000000 1.590990
v 0.000000 -0.036567 1.590990
v -1.060660 -0.036567 -1.060660
v 1.060660 1.000000 1.060660
v 1.060660 -0.036567 1.060660
v -1.060660 1.000000 -1.060660
v -1.060660 -0.036567 1.060660
v 1.060660 1.000000 -1.060660
v -1.060660 1.000000 1.060660
v 1.060660 -0.036567 -1.060660
v 0.000000 -0.036567 -0.000000
v 0.000000 1.000000 -0.000000
vt 0.499461 0.000000
vt 0.499461 0.906628
vt 0.479720 0.906628
vt 0.479720 0.000000
vt 0.460466 0.906628
vt 0.460466 0.000000
vt 0.442439 0.906628
vt 0.442439 0.000000
vt 0.426330 0.906628
vt 0.426330 0.000000
vt 0.411984 0.906628
vt 0.411984 0.000000
vt 0.395266 0.906628
vt 0.395266 0.000000
vt 0.376818 0.906628
vt 0.376819 0.000000
vt 0.357351 0.906628
vt 0.357351 0.000000
vt 0.337610 0.906628
vt 0.337611 0.000000
vt 0.318357 0.906628
vt 0.318357 0.000000
vt 0.300329 0.906628
vt 0.300329 0.000000
vt 0.284220 0.906628
vt 0.284220 0.000000
vt 0.142110 0.000000
vt 0.142110 0.906628
vt 0.126001 0.906628
vt 0.126001 0.000000
vt 0.107973 0.906628
vt 0.107973 0.000000
vt 0.088719 0.906628
vt 0.088719 0.000000
vt 0.068979 0.906628
vt 0.068979 0.000000
vt 0.049511 0.906628
vt 0.049511 0.000000
vt 0.031064 0.906628
vt 0.031064 0.000000
vt 0.014346 0.906628
vt 0.014346 0.000000
vt 0.000000 0.906628
vt 0.000000 0.000000
vt 0.284220 0.000000
vt 0.284220 0.906628
vt 0.268111 0.906628
vt 0.268111 0.000000
vt 0.250083 0.906628
vt 0.250083 0.000000
vt 0.230829 0.906628
vt 0.230829 0.000000
vt 0.211089 0.906628
vt 0.211089 0.000000
vt 0.191621 0.906628
vt 0.191621 0.000000
vt 0.173174 0.906628
vt 0.173174 0.000000
vt 0.156456 0.906628
vt 0.156456 0.000000
vt 0.142110 0.906628
vt 0.142110 0.000000
vt 0.568440 0.000000
vt 0.568439 0.906628
vt 0.554093 0.906628
vt 0.554093 0.000000
vt 0.537376 0.906628
vt 0.537376 0.000000
vt 0.768942 0.663779
vt 0.772795 0.644411
vt 0.780352 0.626166
vt 0.791323 0.609747
vt 0.805287 0.595783
vt 0.821707 0.584812
vt 0.839951 0.577254
vt 0.859320 0.573402
vt 0.879068 0.573402
vt 0.898436 0.577254
vt 0.916680 0.584812
vt 0.933100 0.595783
vt 0.947064 0.609747
vt 0.958035 0.626166
vt 0.965592 0.644411
vt 0.969445 0.663779
vt 0.969445 0.683527
vt 0.965593 0.702895
vt 0.958035 0.721140
vt 0.947064 0.737560
vt 0.933100 0.751523
vt 0.916681 0.762495
vt 0.898436 0.770052
vt 0.879068 0.773905
vt 0.859320 0.773905
vt 0.839951 0.770052
vt 0.821707 0.762495
vt 0.805287 0.751523
vt 0.791323 0.737560
vt 0.780352 0.721140
vt 0.772795 0.702895
vt 0.768942 0.683527
vt 0.518928 0.906628
vt 0.518928 0.000000
vt 0.572292 0.702895
vt 0.568440 0.683527
vt 0.568440 0.663779
vt 0.572292 0.644411
vt 0.579849 0.626166
vt 0.590821 0.609747
vt 0.604784 0.595783
vt 0.621204 0.584812
vt 0.639449 0.577254
vt 0.658817 0.573402
vt 0.678565 0.573402
vt 0.697933 0.577254
vt 0.716178 0.584812
vt 0.732597 0.595783
vt 0.746561 0.609747
vt 0.757532 0.626166
vt 0.765090 0.644411
vt 0.768942 0.663779
vt 0.768942 0.683527
vt 0.765090 0.702895
vt 0.757532 0.721140
vt 0.746561 0.737560
vt 0.732597 0.751523
vt 0.716178 0.762495
vt 0.697933 0.770052
vt 0.678565 0.773905
vt 0.658817 0.773905
vt 0.639449 0.770052
vt 0.621204 0.762495
vt 0.604784 0.751523
vt 0.590821 0.737560
vt 0.579849 0.721140
vt 0.711790 0.430051
vt 0.759574 0.286701
vt 0.855141 0.358376
vt 0.855141 0.477835
vt 0.777280 0.884295
vt 0.672860 0.884295
vt 0.672860 0.773905
vt 0.777280 0.773905
vt 0.672860 0.884295
vt 0.568440 0.884295
vt 0.568440 0.773905
vt 0.672860 0.773905
vt 0.711790 0.143350
vt 0.759574 0.000000
vt 0.855141 0.071675
vt 0.855141 0.191134
vt 0.959561 0.341801
vt 0.855141 0.341801
vt 0.855141 0.226095
vt 0.959561 0.226095
vt 0.959561 0.115705
vt 0.855141 0.115705
vt 0.855141 0.000000
vt 0.959561 0.000000
vt 0.959561 0.226095
vt 0.855141 0.226095
vt 0.664007 0.286701
vt 0.783465 0.286701
vt 0.777280 1.000000
vt 0.672860 1.000000
vt 0.664007 0.573402
vt 0.783465 0.573402
vt 0.568440 0.501727
vt 0.568440 0.382268
vt 0.568440 0.215026
vt 0.568440 0.095567
vt 0.959561 0.452191
vt 0.855141 0.452191
vt 0.640115 0.000000
vt 0.672860 1.000000
vt 0.568440 1.000000
vt 0.640115 0.286701
vn -0.6344 0.0000 -0.7730
vn -0.4714 0.0000 -0.8819
vn -0.2903 0.0000 -0.9569
vn -0.0980 0.0000 -0.9952
vn 0.0980 0.0000 -0.9952
vn 0.2903 0.0000 -0.9569
vn 0.4714 0.0000 -0.8819
vn 0.6344 0.0000 -0.7730
vn 0.7730 0.0000 -0.6344
vn 0.8819 0.0000 -0.4714
vn 0.9569 0.0000 -0.2903
vn 0.9952 0.0000 -0.0980
vn 0.9952 0.0000 0.0980
vn 0.9569 0.0000 0.2903
vn 0.8819 0.0000 0.4714
vn 0.7730 0.0000 0.6344
vn 0.6344 0.0000 0.7730
vn 0.4714 0.0000 0.8819
vn 0.2903 0.0000 0.9569
vn 0.0980 0.0000 0.9952
vn -0.0980 0.0000 0.9952
vn -0.2903 0.0000 0.9569
vn -0.4714 0.0000 0.8819
vn -0.6344 0.0000 0.7730
vn -0.7730 0.0000 0.6344
vn -0.8819 0.0000 0.4714
vn -0.9569 0.0000 0.2903
vn -0.9952 0.0000 0.0980
vn -0.9952 0.0000 -0.0980
vn -0.9569 0.0000 -0.2903
vn 0.0000 1.0000 0.0000
vn -0.8819 0.0000 -0.4714
vn -0.7730 0.0000 -0.6344
vn 0.0000 -1.0000 0.0000
vn 0.4472 0.0000 0.8944
vn -0.8944 0.0000 0.4472
vn 0.8944 0.0000 -0.4472
vn -0.4472 0.0000 -0.8944
vn -0.8944 0.0000 -0.4472
vn 0.8944 0.0000 0.4472
vn 0.4472 0.0000 -0.8944
vn -0.4472 0.0000 0.8944
usemtl Material
s off
f 1/1/1 2/2/1 4/3/1 3/4/1
f 3/4/2 4/3/2 6/5/2 5/6/2
f 5/6/3 6/5/3 8/7/3 7/8/3
f 7/8/4 8/7/4 10/9/4 9/10/4
f 9/10/5 10/9/5 12/11/5 11/12/5
f 11/12/6 12/11/6 14/13/6 13/14/6
f 13/14/7 14/13/7 16/15/7 15/16/7
f 15/16/8 16/15/8 18/17/8 17/18/8
f 17/18/9 18/17/9 20/19/9 19/20/9
f 19/20/10 20/19/10 22/21/10 21/22/10
f 21/22/11 22/21/11 24/23/11 23/24/11
f 23/24/12 24/23/12 26/25/12 25/26/12
f 25/27/13 26/28/13 28/29/13 27/30/13
f 27/30/14 28/29/14 30/31/14 29/32/14
f 29/32/15 30/31/15 32/33/15 31/34/15
f 31/34/16 32/33/16 34/35/16 33/36/16
f 33/36/17 34/35/17 36/37/17 35/38/17
f 35/38/18 36/37/18 38/39/18 37/40/18
f 37/40/19 38/39/19 40/41/19 39/42/19
f 39/42/20 40/41/20 42/43/20 41/44/20
f 41/45/21 42/46/21 44/47/21 43/48/21
f 43/48/22 44/47/22 46/49/22 45/50/22
f 45/50/23 46/49/23 48/51/23 47/52/23
f 47/52/24 48/51/24 50/53/24 49/54/24
f 49/54/25 50/53/25 52/55/25 51/56/25
f 51/56/26 52/55/26 54/57/26 53/58/26
f 53/58/27 54/57/27 56/59/27 55/60/27
f 55/60/28 56/59/28 58/61/28 57/62/28
f 57/63/29 58/64/29 60/65/29 59/66/29
f 59/66/30 60/65/30 62/67/30 61/68/30
f 4/69/31 2/70/31 64/71/31 62/72/31 60/73/31 58/74/31 56/75/31 54/76/31 52/77/31 50/78/31 48/79/31 46/80/31 44/81/31 42/82/31 40/83/31 38/84/31 36/85/31 34/86/31 32/87/31 30/88/31 28/89/31 26/90/31 24/91/31 22/92/31 20/93/31 18/94/31 16/95/31 14/96/31 12/97/31 10/98/31 8/99/31 6/100/31
f 61/68/32 62/67/32 64/101/32 63/102/32
f 63/102/33 64/101/33 2/2/33 1/1/33
f 1/103/34 3/104/34 5/105/34 7/106/34 9/107/34 11/108/34 13/109/34 15/110/34 17/111/34 19/112/34 21/113/34 23/114/34 25/115/34 27/116/34 29/117/34 31/118/34 33/119/34 35/120/34 37/121/34 39/122/34 41/123/34 43/124/34 45/125/34 47/126/34 49/127/34 51/128/34 53/129/34 55/130/34 57/131/34 59/132/34 61/133/34 63/134/34
f 82/135/31 79/136/31 71/137/31 74/138/31
f 75/139/35 74/140/35 71/141/35 72/142/35
f 77/143/36 79/144/36 69/145/36 70/146/36
f 81/147/34 80/148/34 68/149/34 75/150/34
f 80/151/37 78/152/37 67/153/37 68/154/37
f 73/155/38 76/156/38 65/157/38 66/158/38
f 70/159/39 69/160/39 76/156/39 73/155/39
f 77/161/34 81/147/34 75/150/34 72/162/34
f 68/163/40 67/164/40 74/140/40 75/139/40
f 78/165/31 82/135/31 74/138/31 67/166/31
f 65/167/31 76/168/31 82/135/31 78/165/31
f 70/169/34 73/170/34 81/147/34 77/161/34
f 66/171/41 65/172/41 78/152/41 80/151/41
f 73/170/34 66/173/34 80/148/34 81/147/34
f 72/174/42 71/175/42 79/144/42 77/143/42
f 76/168/31 69/176/31 79/136/31 82/135/31
